<svg width="16" height="16" viewBox="0 0 16 16" fill="none" xmlns="http://www.w3.org/2000/svg">
<path d="M15.8444 6.4332H15.2V6.4H8V9.6H12.5212C11.8616 11.4628 10.0892 12.8 8 12.8C5.3492 12.8 3.2 10.6508 3.2 8C3.2 5.3492 5.3492 3.2 8 3.2C9.2236 3.2 10.3368 3.6616 11.1844 4.4156L13.4472 2.1528C12.0184 0.8212 10.1072 0 8 0C3.582 0 0 3.582 0 8C0 12.418 3.582 16 8 16C12.418 16 16 12.418 16 8C16 7.4636 15.9448 6.94 15.8444 6.4332Z" fill="#FFC107"/>
<path d="M0.922852 4.2764L3.55125 6.204C4.26245 4.4432 5.98485 3.2 8.00045 3.2C9.22405 3.2 10.3373 3.6616 11.1849 4.4156L13.4477 2.1528C12.0189 0.8212 10.1077 0 8.00045 0C4.92765 0 2.26285 1.7348 0.922852 4.2764Z" fill="#FF3D00"/>
<path d="M7.99993 15.9999C10.0663 15.9999 11.9439 15.2091 13.3635 13.9231L10.8875 11.8279C10.0573 12.4592 9.04291 12.8007 7.99993 12.7999C5.91913 12.7999 4.15233 11.4731 3.48673 9.62146L0.87793 11.6315C2.20193 14.2223 4.89073 15.9999 7.99993 15.9999Z" fill="#4CAF50"/>
<path d="M15.8444 6.43322H15.2V6.40002H8V9.60002H12.5212C12.2057 10.4866 11.6373 11.2613 10.8864 11.8284L10.8876 11.8276L13.3636 13.9228C13.1884 14.082 16 12 16 8.00002C16 7.46362 15.9448 6.94002 15.8444 6.43322Z" fill="#1976D2"/>
</svg>
