<svg width="22" height="22" viewBox="0 0 22 22" fill="none" xmlns="http://www.w3.org/2000/svg">
<rect x="15.3984" y="1.09985" width="2.19993" height="6.59979" rx="1.09997" fill="#E93C3C"/>
<path d="M1.09975 12.1001H2.19974V19.8C2.19974 21.0133 3.18643 22 4.39972 22H17.5996C18.8129 22 19.7996 21.0133 19.7996 19.8V12.1001H20.8996C21.1171 12.1001 21.3297 12.0355 21.5106 11.9146C21.6914 11.7938 21.8324 11.622 21.9156 11.421C21.9988 11.2201 22.0206 10.9989 21.9782 10.7856C21.9358 10.5722 21.831 10.3763 21.6772 10.2224L11.7773 0.322518C11.6753 0.220279 11.5541 0.139168 11.4206 0.0838266C11.2872 0.0284854 11.1441 0 10.9997 0C10.8552 0 10.7121 0.0284854 10.5787 0.0838266C10.4453 0.139168 10.324 0.220279 10.222 0.322518L0.322062 10.2224C0.168274 10.3763 0.0635475 10.5722 0.0211236 10.7856C-0.0213003 10.9989 0.000482844 11.2201 0.083719 11.421C0.166955 11.622 0.307907 11.7938 0.488756 11.9146C0.669605 12.0355 0.882231 12.1001 1.09975 12.1001ZM10.9997 2.65559L17.5996 9.25553V14.3001L17.6007 19.8H4.39972V9.25663L10.9997 2.65559Z" fill="#007EFF"/>
<path d="M10.9996 16.4996C13.4261 16.4996 15.3995 14.5262 15.3995 12.0997C15.3995 9.67309 13.4261 7.69971 10.9996 7.69971C8.57299 7.69971 6.59961 9.67309 6.59961 12.0997C6.59961 14.5262 8.57299 16.4996 10.9996 16.4996ZM10.9996 9.89968C12.2129 9.89968 13.1995 10.8864 13.1995 12.0997C13.1995 13.313 12.2129 14.2996 10.9996 14.2996C9.78628 14.2996 8.79959 13.313 8.79959 12.0997C8.79959 10.8864 9.78628 9.89968 10.9996 9.89968Z" fill="#E93C3C"/>
</svg>
