<svg width="206" height="68" viewBox="0 0 206 68" fill="none" xmlns="http://www.w3.org/2000/svg">
<path d="M78.6256 52.14C77.6549 52.14 76.8476 51.958 76.2036 51.594C75.5689 51.2207 75.0929 50.7027 74.7756 50.04C74.4583 49.368 74.2996 48.584 74.2996 47.688C74.2996 46.708 74.4489 45.854 74.7476 45.126C75.0463 44.398 75.5129 43.838 76.1476 43.446C76.7823 43.0447 77.6036 42.844 78.6116 42.844C79.1343 42.844 79.6056 42.8813 80.0256 42.956C80.4549 43.0307 80.8563 43.1333 81.2296 43.264V44.272C80.8563 44.132 80.4596 44.0247 80.0396 43.95C79.6196 43.866 79.1763 43.824 78.7096 43.824C77.8976 43.824 77.2536 43.978 76.7776 44.286C76.3016 44.594 75.9609 45.0373 75.7556 45.616C75.5503 46.1947 75.4476 46.8853 75.4476 47.688C75.4476 48.7987 75.7043 49.6573 76.2176 50.264C76.7309 50.8613 77.5569 51.16 78.6956 51.16C79.0969 51.16 79.4843 51.1273 79.8576 51.062C80.2309 50.9967 80.5623 50.908 80.8516 50.796V47.926H78.4436V47.142H81.8456V51.426C81.5749 51.6033 81.1783 51.7667 80.6556 51.916C80.1423 52.0653 79.4656 52.14 78.6256 52.14ZM89.245 52.14C88.013 52.14 87.0703 51.846 86.417 51.258C85.773 50.67 85.451 49.816 85.451 48.696V42.984H86.599V48.71C86.599 49.5313 86.8277 50.1473 87.285 50.558C87.7517 50.9593 88.405 51.16 89.245 51.16C90.0757 51.16 90.7197 50.9593 91.177 50.558C91.6437 50.1473 91.877 49.5313 91.877 48.71V42.984H93.025V48.696C93.025 49.816 92.6983 50.67 92.045 51.258C91.401 51.846 90.4677 52.14 89.245 52.14ZM96.0047 52L99.4347 42.984H100.779L104.195 52H103.019L102.067 49.522H98.1467L97.1947 52H96.0047ZM98.3427 48.612H101.857L100.093 43.978L98.3427 48.612ZM107.869 52V42.984H111.831C112.801 42.984 113.506 43.236 113.945 43.74C114.393 44.244 114.617 44.9253 114.617 45.784C114.617 46.4467 114.453 46.9973 114.127 47.436C113.809 47.8747 113.333 48.1687 112.699 48.318C112.885 48.43 113.025 48.5607 113.119 48.71C113.221 48.85 113.324 49.0413 113.427 49.284L114.603 52H113.427L112.279 49.382C112.157 49.102 112.008 48.9013 111.831 48.78C111.663 48.6587 111.359 48.598 110.921 48.598H109.017V52H107.869ZM109.017 47.702H111.509C112.115 47.702 112.591 47.5527 112.937 47.254C113.291 46.946 113.469 46.456 113.469 45.784C113.469 44.524 112.867 43.894 111.663 43.894H109.017V47.702ZM118.291 52V42.984H121.819C123.125 42.984 124.082 43.3387 124.689 44.048C125.295 44.7573 125.599 45.924 125.599 47.548C125.599 49.088 125.3 50.2173 124.703 50.936C124.115 51.6453 123.153 52 121.819 52H118.291ZM119.439 51.104H121.609C122.243 51.104 122.771 51.0107 123.191 50.824C123.611 50.628 123.923 50.2733 124.129 49.76C124.343 49.2467 124.451 48.5093 124.451 47.548C124.451 46.596 124.353 45.854 124.157 45.322C123.97 44.79 123.667 44.4213 123.247 44.216C122.836 44.0013 122.29 43.894 121.609 43.894H119.439V51.104ZM134.22 52L137.65 42.984H138.994L142.41 52H141.234L140.282 49.522H136.362L135.41 52H134.22ZM136.558 48.612H140.072L138.308 43.978L136.558 48.612ZM146.084 52V42.984H149.892C150.9 42.984 151.642 43.2547 152.118 43.796C152.594 44.3373 152.832 45.0373 152.832 45.896C152.832 46.7733 152.561 47.4687 152.02 47.982C151.488 48.486 150.76 48.738 149.836 48.738H147.232V52H146.084ZM147.232 47.842H149.654C150.326 47.842 150.83 47.6693 151.166 47.324C151.511 46.9693 151.684 46.4933 151.684 45.896C151.684 45.2613 151.52 44.7713 151.194 44.426C150.876 44.0713 150.386 43.894 149.724 43.894H147.232V47.842ZM156.232 52V42.984H160.04C161.048 42.984 161.79 43.2547 162.266 43.796C162.742 44.3373 162.98 45.0373 162.98 45.896C162.98 46.7733 162.709 47.4687 162.168 47.982C161.636 48.486 160.908 48.738 159.984 48.738H157.38V52H156.232ZM157.38 47.842H159.802C160.474 47.842 160.978 47.6693 161.314 47.324C161.659 46.9693 161.832 46.4933 161.832 45.896C161.832 45.2613 161.669 44.7713 161.342 44.426C161.025 44.0713 160.535 43.894 159.872 43.894H157.38V47.842Z" fill="#25282B"/>
<path d="M77.4594 33.28C76.2647 33.28 75.1447 33.1867 74.0994 33C73.0727 32.832 72.1861 32.58 71.4394 32.244V28.408C72.2607 28.7627 73.1661 29.052 74.1554 29.276C75.1634 29.5 76.1154 29.612 77.0114 29.612C78.1314 29.612 78.9621 29.5093 79.5034 29.304C80.0634 29.0987 80.3434 28.6507 80.3434 27.96C80.3434 27.4933 80.2034 27.12 79.9234 26.84C79.6621 26.56 79.2234 26.3173 78.6074 26.112C78.0101 25.888 77.1887 25.6267 76.1434 25.328C74.9114 24.9547 73.9314 24.544 73.2034 24.096C72.4754 23.6293 71.9527 23.0693 71.6354 22.416C71.3181 21.7627 71.1594 20.96 71.1594 20.008C71.1594 18.2907 71.7754 16.9747 73.0074 16.06C74.2394 15.1453 76.0594 14.688 78.4674 14.688C79.5127 14.688 80.5301 14.772 81.5194 14.94C82.5087 15.0893 83.3114 15.2667 83.9274 15.472V19.336C83.1247 19.0187 82.3127 18.7853 81.4914 18.636C80.6887 18.4867 79.9047 18.412 79.1394 18.412C78.1314 18.412 77.3101 18.5053 76.6754 18.692C76.0594 18.8787 75.7514 19.308 75.7514 19.98C75.7514 20.372 75.8634 20.6893 76.0874 20.932C76.3114 21.156 76.6941 21.3613 77.2354 21.548C77.7954 21.7347 78.5514 21.9587 79.5034 22.22C80.9781 22.612 82.1074 23.088 82.8914 23.648C83.6754 24.1893 84.2167 24.824 84.5154 25.552C84.8141 26.2613 84.9634 27.064 84.9634 27.96C84.9634 29.5467 84.3474 30.8347 83.1154 31.824C81.8834 32.7947 79.9981 33.28 77.4594 33.28ZM87.3507 33V14.968H100.651V18.44H91.8587V22.22H99.6147V25.748H91.8587V29.528H100.651V33H87.3507ZM112.028 33.28C108.873 33.28 106.465 32.4773 104.804 30.872C103.161 29.248 102.34 26.9987 102.34 24.124C102.34 21.1187 103.143 18.7947 104.748 17.152C106.372 15.5093 108.789 14.688 112 14.688C113.101 14.688 114.081 14.772 114.94 14.94C115.817 15.108 116.657 15.332 117.46 15.612V19.56C115.836 18.888 114.128 18.552 112.336 18.552C110.469 18.552 109.097 19 108.22 19.896C107.361 20.792 106.932 22.2013 106.932 24.124C106.932 25.9533 107.389 27.2973 108.304 28.156C109.219 29.0147 110.581 29.444 112.392 29.444C113.269 29.444 114.137 29.3693 114.996 29.22C115.855 29.052 116.685 28.8 117.488 28.464V32.44C116.704 32.7013 115.873 32.9067 114.996 33.056C114.119 33.2053 113.129 33.28 112.028 33.28ZM128.019 33.28C126.339 33.28 124.874 33.0093 123.623 32.468C122.391 31.9267 121.43 31.124 120.739 30.06C120.067 28.996 119.731 27.6893 119.731 26.14V14.968H124.239V25.72C124.239 26.9707 124.566 27.904 125.219 28.52C125.872 29.136 126.806 29.444 128.019 29.444C129.232 29.444 130.166 29.136 130.819 28.52C131.472 27.904 131.799 26.9707 131.799 25.72V14.968H136.307V26.14C136.307 27.6893 135.962 28.996 135.271 30.06C134.599 31.124 133.638 31.9267 132.387 32.468C131.155 33.0093 129.699 33.28 128.019 33.28ZM139.112 33V14.968H148.128C150.256 14.968 151.824 15.528 152.832 16.648C153.84 17.768 154.344 19.2707 154.344 21.156C154.344 22.3693 154.036 23.4333 153.42 24.348C152.804 25.2627 151.964 25.944 150.9 26.392C151.161 26.5973 151.366 26.8307 151.516 27.092C151.684 27.3347 151.861 27.68 152.048 28.128L154.176 33H149.472L147.456 28.408C147.288 28.016 147.073 27.736 146.812 27.568C146.55 27.3813 146.177 27.288 145.692 27.288H143.62V33H139.112ZM143.62 23.816H146.952C147.829 23.816 148.51 23.6013 148.996 23.172C149.5 22.724 149.752 22.052 149.752 21.156C149.752 19.3453 148.884 18.44 147.148 18.44H143.62V23.816ZM156.739 33V14.968H161.247V33H156.739ZM168.366 33V18.44H163.074V14.968H178.166V18.44H172.874V33H168.366ZM185.337 33V26.364L178.869 14.968H183.573L187.605 22.444L191.637 14.968H196.341L189.873 26.364V33H185.337Z" fill="#25282B"/>
<path d="M36.5 3L58 12.8809V27.5872C58 34.4043 55.947 40.6277 51.8411 46.2574C47.7352 51.8872 42.6215 55.4681 36.5 57C30.3785 55.4681 25.2648 51.8872 21.1589 46.2574C17.053 40.6277 15 34.4043 15 27.5872V12.8809L36.5 3ZM36.5 30V8.4L19.8151 15.983V30H36.5V51.9447C40.9045 50.4894 44.6372 47.7319 47.6979 43.6723C50.7587 39.6128 52.5877 35.0553 53.1849 30H36.5Z" fill="#007EFF"/>
</svg>
