<svg width="21" height="22" viewBox="0 0 21 22" fill="none" xmlns="http://www.w3.org/2000/svg">
<path d="M20.0047 3.67758C20.0709 3.51196 20.0955 3.33261 20.0763 3.15526C20.0571 2.97792 19.9946 2.80801 19.8944 2.66042C19.7942 2.51283 19.6594 2.39208 19.5016 2.30876C19.3439 2.22544 19.1682 2.1821 18.9898 2.18254H5.32707V1.09127C5.32707 0.491071 4.836 0 4.2358 0C3.6356 0 3.14453 0.491071 3.14453 1.09127V21.8254H5.32707V13.0952H18.9898C19.7646 13.0952 20.2884 12.3204 20.0047 11.6002L18.4223 7.63889L20.0047 3.67758ZM14.0572 7.63889C14.0572 8.83929 13.0751 9.82143 11.8747 9.82143C10.6743 9.82143 9.69215 8.83929 9.69215 7.63889C9.69215 6.43849 10.6743 5.45635 11.8747 5.45635C13.0751 5.45635 14.0572 6.43849 14.0572 7.63889Z" fill="#007EFF"/>
<rect y="19.9048" width="8.38095" height="2.09524" rx="1" fill="#FB4E4E"/>
</svg>
