<svg width="30" height="22" viewBox="0 0 30 22" fill="none" xmlns="http://www.w3.org/2000/svg">
<path d="M7 20H3C2.73478 20 2.48043 19.8946 2.29289 19.7071C2.10536 19.5196 2 19.2652 2 19V15C2 14.7348 1.89464 14.4804 1.70711 14.2929C1.51957 14.1054 1.26522 14 1 14C0.734784 14 0.48043 14.1054 0.292893 14.2929C0.105357 14.4804 0 14.7348 0 15V19C0 19.7956 0.31607 20.5587 0.87868 21.1213C1.44129 21.6839 2.20435 22 3 22H7C7.26522 22 7.51957 21.8946 7.70711 21.7071C7.89464 21.5196 8 21.2652 8 21C8 20.7348 7.89464 20.4804 7.70711 20.2929C7.51957 20.1054 7.26522 20 7 20ZM21 14C20.7348 14 20.4804 14.1054 20.2929 14.2929C20.1054 14.4804 20 14.7348 20 15V19C20 19.2652 19.8946 19.5196 19.7071 19.7071C19.5196 19.8946 19.2652 20 19 20H15C14.7348 20 14.4804 20.1054 14.2929 20.2929C14.1054 20.4804 14 20.7348 14 21C14 21.2652 14.1054 21.5196 14.2929 21.7071C14.4804 21.8946 14.7348 22 15 22H19C19.7956 22 20.5587 21.6839 21.1213 21.1213C21.6839 20.5587 22 19.7956 22 19V15C22 14.7348 21.8946 14.4804 21.7071 14.2929C21.5196 14.1054 21.2652 14 21 14ZM19 0H15C14.7348 0 14.4804 0.105357 14.2929 0.292893C14.1054 0.48043 14 0.734784 14 1C14 1.26522 14.1054 1.51957 14.2929 1.70711C14.4804 1.89464 14.7348 2 15 2H19C19.2652 2 19.5196 2.10536 19.7071 2.29289C19.8946 2.48043 20 2.73478 20 3V7C20 7.26522 20.1054 7.51957 20.2929 7.70711C20.4804 7.89464 20.7348 8 21 8C21.2652 8 21.5196 7.89464 21.7071 7.70711C21.8946 7.51957 22 7.26522 22 7V3C22 2.20435 21.6839 1.44129 21.1213 0.87868C20.5587 0.31607 19.7956 0 19 0ZM1 8C1.26522 8 1.51957 7.89464 1.70711 7.70711C1.89464 7.51957 2 7.26522 2 7V3C2 2.73478 2.10536 2.48043 2.29289 2.29289C2.48043 2.10536 2.73478 2 3 2H7C7.26522 2 7.51957 1.89464 7.70711 1.70711C7.89464 1.51957 8 1.26522 8 1C8 0.734784 7.89464 0.48043 7.70711 0.292893C7.51957 0.105357 7.26522 0 7 0H3C2.20435 0 1.44129 0.31607 0.87868 0.87868C0.31607 1.44129 0 2.20435 0 3V7C0 7.26522 0.105357 7.51957 0.292893 7.70711C0.48043 7.89464 0.734784 8 1 8ZM9 4H5C4.73478 4 4.48043 4.10536 4.29289 4.29289C4.10536 4.48043 4 4.73478 4 5V9C4 9.26522 4.10536 9.51957 4.29289 9.70711C4.48043 9.89464 4.73478 10 5 10H9C9.26522 10 9.51957 9.89464 9.70711 9.70711C9.89464 9.51957 10 9.26522 10 9V5C10 4.73478 9.89464 4.48043 9.70711 4.29289C9.51957 4.10536 9.26522 4 9 4ZM8 8H6V6H8V8ZM13 10H17C17.2652 10 17.5196 9.89464 17.7071 9.70711C17.8946 9.51957 18 9.26522 18 9V5C18 4.73478 17.8946 4.48043 17.7071 4.29289C17.5196 4.10536 17.2652 4 17 4H13C12.7348 4 12.4804 4.10536 12.2929 4.29289C12.1054 4.48043 12 4.73478 12 5V9C12 9.26522 12.1054 9.51957 12.2929 9.70711C12.4804 9.89464 12.7348 10 13 10ZM14 6H16V8H14V6ZM9 12H5C4.73478 12 4.48043 12.1054 4.29289 12.2929C4.10536 12.4804 4 12.7348 4 13V17C4 17.2652 4.10536 17.5196 4.29289 17.7071C4.48043 17.8946 4.73478 18 5 18H9C9.26522 18 9.51957 17.8946 9.70711 17.7071C9.89464 17.5196 10 17.2652 10 17V13C10 12.7348 9.89464 12.4804 9.70711 12.2929C9.51957 12.1054 9.26522 12 9 12ZM8 16H6V14H8V16ZM13 15C13.2652 15 13.5196 14.8946 13.7071 14.7071C13.8946 14.5196 14 14.2652 14 14C14.2652 14 14.5196 13.8946 14.7071 13.7071C14.8946 13.5196 15 13.2652 15 13C15 12.7348 14.8946 12.4804 14.7071 12.2929C14.5196 12.1054 14.2652 12 14 12H13C12.7348 12 12.4804 12.1054 12.2929 12.2929C12.1054 12.4804 12 12.7348 12 13V14C12 14.2652 12.1054 14.5196 12.2929 14.7071C12.4804 14.8946 12.7348 15 13 15ZM17 12C16.7348 12 16.4804 12.1054 16.2929 12.2929C16.1054 12.4804 16 12.7348 16 13V16C15.7348 16 15.4804 16.1054 15.2929 16.2929C15.1054 16.4804 15 16.7348 15 17C15 17.2652 15.1054 17.5196 15.2929 17.7071C15.4804 17.8946 15.7348 18 16 18H17C17.2652 18 17.5196 17.8946 17.7071 17.7071C17.8946 17.5196 18 17.2652 18 17V13C18 12.7348 17.8946 12.4804 17.7071 12.2929C17.5196 12.1054 17.2652 12 17 12ZM13 16C12.8022 16 12.6089 16.0586 12.4444 16.1685C12.28 16.2784 12.1518 16.4346 12.0761 16.6173C12.0004 16.8 11.9806 17.0011 12.0192 17.1951C12.0578 17.3891 12.153 17.5673 12.2929 17.7071C12.4327 17.847 12.6109 17.9422 12.8049 17.9808C12.9989 18.0194 13.2 17.9996 13.3827 17.9239C13.5654 17.8482 13.7216 17.72 13.8315 17.5556C13.9414 17.3911 14 17.1978 14 17C14 16.7348 13.8946 16.4804 13.7071 16.2929C13.5196 16.1054 13.2652 16 13 16Z" fill="#007EFF"/>
<path d="M25.2538 8.66404C25.195 8.76446 25.14 8.86709 25.0891 8.97171M25.2538 8.66404L25.3401 8.71461M25.2538 8.66404C25.2538 8.66405 25.2538 8.66406 25.2538 8.66406L25.3401 8.71461M25.2538 8.66404C25.5898 8.09051 26.067 7.5847 26.7225 7.22749M25.0891 8.97171L25.3401 8.71461M25.0891 8.97171C24.8321 8.49307 24.4854 8.06757 24.0671 7.71881L24.0669 7.71862C23.8947 7.57589 23.7118 7.44688 23.5197 7.33274M25.0891 8.97171L24.9883 5.89621M25.3401 8.71461C25.6771 8.13937 26.1587 7.63532 26.8247 7.28627C26.7905 7.26722 26.7564 7.24763 26.7225 7.22749M26.7225 7.22749C26.5351 7.11625 26.3516 6.98815 26.1752 6.84151L26.1751 6.84141C25.7568 6.49261 25.41 6.06706 25.153 5.58834M26.7225 7.22749C26.7568 7.20879 26.7916 7.1905 26.8269 7.17263C26.6253 7.05692 26.428 6.92163 26.2391 6.76461C25.8114 6.40801 25.4603 5.96925 25.2063 5.47478C25.189 5.51273 25.1713 5.5506 25.153 5.58834M25.153 5.58834C25.1026 5.69211 25.0479 5.79498 24.9883 5.89621M25.153 5.58834C25.1332 5.55151 25.1139 5.51435 25.0952 5.47689C25.0372 5.60152 24.9731 5.72486 24.9021 5.84561M24.9883 5.89621L24.0031 7.79561C23.8191 7.64306 23.6224 7.50656 23.4153 7.38759C23.4506 7.36972 23.4854 7.35143 23.5197 7.33274M24.9883 5.89621C24.9883 5.89624 24.9883 5.89627 24.9883 5.8963L24.9021 5.84561M24.9883 5.89621L24.9021 5.84561M24.9883 5.89621C24.6519 6.46969 24.1751 6.97551 23.5197 7.33274M24.9021 5.84561C24.5646 6.42084 24.0835 6.92489 23.4175 7.27395C23.4519 7.29308 23.4859 7.31268 23.5197 7.33274M23.3002 8.64201L23.3003 8.64208C23.9573 9.18709 24.5211 10.1332 24.5211 11.7801C24.5211 11.9392 24.5843 12.0919 24.6968 12.2044C24.8094 12.3169 24.962 12.3801 25.1211 12.3801C25.2802 12.3801 25.4328 12.3169 25.5454 12.2044C25.6579 12.0919 25.7211 11.9392 25.7211 11.7801C25.7211 11.0637 25.8205 10.0695 26.2884 9.27117C26.5094 8.89462 26.8197 8.5484 27.2706 8.29565C27.7218 8.04273 28.3198 7.88011 29.1211 7.88011C29.2802 7.88011 29.4328 7.81689 29.5454 7.70437C29.6579 7.59185 29.7211 7.43924 29.7211 7.28011C29.7211 7.12098 29.6579 6.96837 29.5454 6.85584C29.4328 6.74332 29.2802 6.68011 29.1211 6.68011C28.4744 6.68011 27.6219 6.48332 26.942 5.91821L26.9419 5.91814C26.2848 5.37313 25.7211 4.42698 25.7211 2.78011C25.7211 2.62098 25.6579 2.46837 25.5454 2.35584C25.4328 2.24332 25.2802 2.18011 25.1211 2.18011C24.962 2.18011 24.8094 2.24332 24.6968 2.35584C24.5843 2.46837 24.5211 2.62098 24.5211 2.78011C24.5211 3.49645 24.4217 4.4907 23.9539 5.28898C23.7328 5.66556 23.4225 6.0118 22.9716 6.26456C22.5203 6.51749 21.9224 6.68011 21.1211 6.68011C20.962 6.68011 20.8094 6.74332 20.6968 6.85584C20.5843 6.96837 20.5211 7.12098 20.5211 7.28011C20.5211 7.43924 20.5843 7.59185 20.6968 7.70437C20.8094 7.81689 20.962 7.88011 21.1211 7.88011C21.7678 7.88011 22.6203 8.0769 23.3002 8.64201ZM21.7211 9.82011C21.7211 9.66098 21.6579 9.50836 21.5454 9.39584C21.4328 9.28332 21.2802 9.22011 21.1211 9.22011C20.962 9.22011 20.8094 9.28332 20.6968 9.39584C20.5843 9.50836 20.5211 9.66098 20.5211 9.82011V10.2201H20.1211C19.962 10.2201 19.8094 10.2833 19.6968 10.3958C19.5843 10.5084 19.5211 10.661 19.5211 10.8201C19.5211 10.9792 19.5843 11.1319 19.6968 11.2444C19.8094 11.3569 19.962 11.4201 20.1211 11.4201H20.5211V11.8201C20.5211 11.9792 20.5843 12.1319 20.6968 12.2444C20.8094 12.3569 20.962 12.4201 21.1211 12.4201C21.2802 12.4201 21.4328 12.3569 21.5454 12.2444C21.6579 12.1319 21.7211 11.9792 21.7211 11.8201V11.4201H22.1211C22.2802 11.4201 22.4328 11.3569 22.5454 11.2444C22.6579 11.1319 22.7211 10.9792 22.7211 10.8201C22.7211 10.661 22.6579 10.5084 22.5454 10.3958C22.4328 10.2833 22.2802 10.2201 22.1211 10.2201H21.7211V9.82011Z" fill="#FB4E4E" stroke="#FB4E4E" stroke-width="0.2"/>
</svg>
